<svg width="220" height="52" viewBox="0 0 220 52" fill="none" xmlns="http://www.w3.org/2000/svg">
<g id="Group 532">
<path id="Vector" d="M62.8281 15.9275H68.3776V38.0772H62.8281V15.9275ZM70.5904 29.7455C70.5904 24.2592 74.048 20.9708 79.2344 20.9708C84.4208 20.9708 87.8784 24.2592 87.8784 29.7455C87.8784 35.2318 84.5418 38.5543 79.2344 38.5543C73.927 38.5543 70.5904 35.3511 70.5904 29.7455ZM82.3808 29.7455C82.3808 26.7297 81.188 24.9578 79.2863 24.9578C77.3846 24.9578 76.209 26.6616 76.209 29.7455C76.209 32.8294 77.3846 34.5162 79.2863 34.5162C81.188 34.5162 82.4154 32.8294 82.4154 29.7625L82.3808 29.7455ZM90.0913 39.2187H95.4505C95.6945 39.7874 96.1206 40.2617 96.6638 40.5694C97.2069 40.877 97.8373 41.0011 98.4586 40.9226C100.585 40.9226 101.691 39.798 101.691 38.1283V35.0614H101.709C101.251 36.0164 100.51 36.8124 99.5845 37.3446C98.6588 37.8768 97.5913 38.1203 96.5224 38.0431C92.4597 38.0431 89.7628 34.9933 89.7628 29.7455C89.7628 24.4977 92.3387 21.2264 96.678 21.2264C97.7742 21.1686 98.8617 21.4473 99.7906 22.024C100.719 22.6007 101.444 23.4471 101.864 24.4466H101.709V21.3627H107.206V37.9579C107.206 41.9619 103.61 44.4665 98.3203 44.4665C93.5143 44.4495 90.437 42.2856 90.1258 39.2358L90.0913 39.2187ZM101.709 29.7455C101.709 27.0705 100.464 25.3837 98.4932 25.3837C96.5224 25.3837 95.3122 27.0875 95.3122 29.7455C95.3122 32.4035 96.5051 33.971 98.4932 33.971C100.481 33.971 101.709 32.5227 101.709 29.7455ZM109.402 29.7455C109.402 24.2592 112.86 20.9708 118.046 20.9708C123.232 20.9708 126.69 24.2592 126.69 29.7455C126.69 35.2318 123.336 38.5543 118.046 38.5543C112.756 38.5543 109.437 35.3511 109.437 29.7455H109.402ZM121.192 29.7455C121.192 26.7297 119.982 24.9578 118.098 24.9578C116.213 24.9578 115.021 26.6616 115.021 29.7455C115.021 32.8294 116.196 34.5162 118.098 34.5162C119.999 34.5162 121.227 32.8294 121.227 29.7625L121.192 29.7455ZM128.937 17.3247C128.913 16.7675 129.059 16.2161 129.355 15.7411C129.652 15.2662 130.086 14.8895 130.601 14.6597C131.117 14.4298 131.69 14.3571 132.248 14.4511C132.805 14.5451 133.322 14.8013 133.731 15.1869C134.139 15.5726 134.422 16.0699 134.541 16.6149C134.661 17.1599 134.612 17.7278 134.402 18.2453C134.191 18.7629 133.828 19.2065 133.36 19.5192C132.891 19.8318 132.338 19.9992 131.773 19.9997C131.411 20.0087 131.051 19.9469 130.714 19.8178C130.377 19.6887 130.069 19.4949 129.809 19.2476C129.548 19.0003 129.34 18.7045 129.196 18.3774C129.053 18.0502 128.976 17.6982 128.972 17.3417L128.937 17.3247ZM128.937 21.3457H134.556V38.1453H129.024L128.937 21.3457ZM154.766 29.7455C154.766 35.2148 152.276 38.3839 148.041 38.3839C146.956 38.4498 145.877 38.1861 144.95 37.6286C144.022 37.071 143.291 36.2463 142.854 35.2659H142.75V43.5464H137.201V21.3968H142.716V24.3955H142.82C143.241 23.3958 143.966 22.5486 144.894 21.9693C145.822 21.39 146.909 21.1068 148.006 21.1583C152.363 21.1242 154.869 24.2762 154.869 29.7625L154.766 29.7455ZM149.112 29.7455C149.112 27.0875 147.85 25.3667 145.897 25.3667C143.943 25.3667 142.716 27.0705 142.699 29.7455C142.681 32.4205 143.943 34.1073 145.897 34.1073C147.85 34.1073 149.216 32.5227 149.216 29.7625L149.112 29.7455ZM164.239 20.9538C168.89 20.9538 171.777 23.1177 171.812 26.5934H166.746C166.746 25.3837 165.726 24.634 164.205 24.634C162.683 24.634 161.957 25.2133 161.957 26.0823C161.957 26.9512 162.597 27.2239 163.876 27.4794L167.438 28.195C170.895 28.9106 172.278 30.2737 172.278 32.8124C172.278 36.22 169.08 38.5372 164.326 38.5372C159.572 38.5372 156.477 36.2882 156.252 32.8635H161.629C161.784 34.1073 162.787 34.8399 164.412 34.8399C166.037 34.8399 166.798 34.3288 166.798 33.4258C166.798 32.5227 166.279 32.3694 164.948 32.0968L161.733 31.4323C158.396 30.7337 156.65 29.0129 156.65 26.4401C156.754 23.1006 159.658 20.9708 164.343 20.9708L164.239 20.9538ZM190.863 38.1283H185.486V34.9762H185.383C185.082 36.0276 184.426 36.9465 183.524 37.5814C182.622 38.2164 181.528 38.5295 180.421 38.4691C179.585 38.4959 178.753 38.3482 177.98 38.0359C177.206 37.7235 176.508 37.2534 175.932 36.6565C175.356 36.0596 174.914 35.3493 174.636 34.5723C174.358 33.7953 174.25 32.9691 174.318 32.1479V21.3627H179.868V30.9723C179.868 32.9487 180.922 34.0221 182.651 34.0221C183.057 34.0191 183.457 33.9303 183.825 33.7619C184.193 33.5934 184.519 33.3491 184.783 33.0455C185.047 32.7418 185.242 32.386 185.354 32.0019C185.466 31.6177 185.494 31.2144 185.434 30.8189V21.3627H190.967L190.863 38.1283ZM193.542 21.3457H198.936V24.5829H199.057C199.355 23.5459 199.994 22.6355 200.873 21.9942C201.752 21.353 202.822 21.017 203.915 21.039C205.013 20.9449 206.107 21.2578 206.983 21.9163C207.859 22.5749 208.454 23.5318 208.652 24.6H208.894C209.24 23.5261 209.935 22.5948 210.873 21.9508C211.811 21.3069 212.939 20.9863 214.081 21.039C214.839 21.0105 215.596 21.1403 216.3 21.4199C217.005 21.6995 217.642 22.1225 218.169 22.6613C218.696 23.2001 219.102 23.8426 219.359 24.5466C219.617 25.2506 219.721 26.0004 219.665 26.7468V38.1453H214.081V28.1439C214.081 26.4401 213.268 25.486 211.695 25.486C211.346 25.4803 211 25.5491 210.68 25.6876C210.361 25.8261 210.076 26.031 209.844 26.2883C209.613 26.5457 209.44 26.8493 209.339 27.1784C209.238 27.5075 209.21 27.8543 209.257 28.195V38.1453H203.967V28.0928C203.967 26.389 203.12 25.486 201.599 25.486C201.246 25.4832 200.897 25.5548 200.575 25.6959C200.253 25.8371 199.965 26.0445 199.731 26.3043C199.497 26.5642 199.321 26.8703 199.217 27.2023C199.113 27.5343 199.082 27.8844 199.127 28.2291V38.1453H193.577L193.542 21.3457Z" fill="#202D3B" fill-opacity="0.4"/>
<path id="Vector_2" d="M52.4936 17.2862C52.4938 13.869 51.4463 10.5314 49.4884 7.71065C47.5304 4.88986 44.7533 2.71738 41.5208 1.47776C38.2883 0.238135 34.7512 -0.0108205 31.3726 0.763494C27.9941 1.53781 24.9317 3.29929 22.5865 5.81722H0.835938V51.0407H46.7597V29.9055C48.5621 28.3173 50.0044 26.3725 50.9925 24.1981C51.9805 22.0237 52.492 19.6685 52.4936 17.2862ZM43.6574 17.2862C43.6609 18.9237 43.1711 20.5253 42.2502 21.8885C41.3292 23.2517 40.0184 24.315 38.4838 24.944C36.9491 25.573 35.2595 25.7393 33.6288 25.422C31.9981 25.1046 30.4997 24.3178 29.3231 23.1611C28.1465 22.0044 27.3447 20.5299 27.0192 18.9242C26.6936 17.3184 26.859 15.6536 27.4943 14.1404C28.1296 12.6273 29.2063 11.3338 30.5881 10.4237C31.9699 9.51363 33.5948 9.02784 35.257 9.02784C37.4819 9.02784 39.6159 9.89736 41.1908 11.4456C42.7657 12.9939 43.6528 15.0944 43.6574 17.2862ZM37.9235 42.336H9.67212V14.522H18.2817C18.1154 15.4344 18.028 16.3592 18.0203 17.2862C18.0249 21.7882 19.8424 26.1046 23.0739 29.288C26.3054 32.4715 30.6869 34.2619 35.257 34.2665C36.1504 34.2618 37.0421 34.1872 37.9235 34.0433V42.336Z" fill="#202D3B" fill-opacity="0.4"/>
</g>
</svg>
