<svg width="214" height="50" viewBox="0 0 214 50" fill="none" xmlns="http://www.w3.org/2000/svg">
<g id="Group 536">
<path id="Vector" d="M46.9538 17.167C47.5414 17.167 47.7373 17.3976 47.7373 18.0185V32.0677H54.3801C54.9514 32.0677 55.1636 32.2983 55.1636 32.9192V34.1609C55.1636 34.7818 54.9514 35.0124 54.3801 35.0124H45.6318C45.0605 35.0124 44.832 34.7818 44.832 34.1609V18.0185C44.832 17.3976 45.0605 17.167 45.6318 17.167H46.9538Z" fill="#202D3B" fill-opacity="0.4"/>
<path id="Vector_2" d="M61.7383 23.4674C61.7383 19.5339 64.3094 17.167 68.7825 17.167C73.2556 17.167 75.8267 19.5339 75.8267 23.4674V28.712C75.8267 32.6455 73.238 35.0124 68.7825 35.0124C64.327 35.0124 61.7383 32.6455 61.7383 28.712V23.4674ZM72.8682 23.4674C72.8682 21.2537 71.4417 20.0618 68.8706 20.0618C66.2994 20.0618 64.8906 21.2707 64.8906 23.4674V28.7461C64.8906 30.9767 66.2994 32.1517 68.8706 32.1517C71.4417 32.1517 72.8682 30.9256 72.8682 28.7461V23.4674Z" fill="#202D3B" fill-opacity="0.4"/>
<path id="Vector_3" d="M95.6465 25.3332C96.3281 25.3332 96.4854 25.5544 96.4854 26.1499V29.3823C96.5039 30.1437 96.3472 30.8995 96.0266 31.5942C95.706 32.289 95.2298 32.9051 94.6328 33.3974C93.1502 34.5466 91.2808 35.1168 89.3895 34.9966C84.8628 34.9966 82.3984 32.6318 82.3984 28.7018V23.4278C82.3984 19.5488 84.9502 17.167 89.3895 17.167C92.885 17.167 95.1571 18.511 96.1184 21.1991C96.1722 21.3001 96.201 21.4119 96.2026 21.5256C96.2042 21.6394 96.1785 21.7519 96.1276 21.8543C96.0767 21.9567 96.002 22.0461 95.9094 22.1155C95.8168 22.1849 95.7088 22.2322 95.5941 22.2539L94.2308 22.7132C93.6366 22.9174 93.3919 22.7983 93.1821 22.2028C92.8926 21.4762 92.3625 20.8641 91.6756 20.4636C90.9888 20.063 90.1843 19.8968 89.3895 19.9911C86.8203 19.9911 85.4221 21.1991 85.4221 23.3937V28.8039C85.4221 31.0326 86.8378 32.2065 89.3895 32.2065C91.9412 32.2065 93.5142 31.0666 93.5142 29.3993V28.1404H89.7216C89.0924 28.1404 88.8652 27.9022 88.8652 27.3067V26.1499C88.8652 25.5544 89.0924 25.3332 89.7216 25.3332H95.6465Z" fill="#202D3B" fill-opacity="0.4"/>
<path id="Vector_4" d="M104.004 23.4674C104.004 19.5339 106.575 17.167 111.048 17.167C115.521 17.167 118.092 19.5339 118.092 23.4674V28.712C118.092 32.6455 115.504 35.0124 111.048 35.0124C106.593 35.0124 104.004 32.6455 104.004 28.712V23.4674ZM115.116 23.4674C115.116 21.2537 113.69 20.0618 111.136 20.0618C108.583 20.0618 107.139 21.2707 107.139 23.4674V28.7461C107.139 30.9767 108.565 32.1517 111.136 32.1517C113.707 32.1517 115.116 30.9256 115.116 28.7461V23.4674Z" fill="#202D3B" fill-opacity="0.4"/>
<path id="Vector_5" d="M125.605 17.6814C125.605 17.2912 125.734 17.167 126.14 17.167H126.987C127.392 17.167 127.484 17.2912 127.484 17.6814V34.4979C127.484 34.8882 127.484 35.0124 126.987 35.0124H126.14C125.734 35.0124 125.605 34.8882 125.605 34.4979V17.6814Z" fill="#202D3B" fill-opacity="0.4"/>
<path id="Vector_6" d="M143.73 17.167C145.15 17.167 146.512 17.7538 147.517 18.7984C148.521 19.843 149.085 21.2598 149.085 22.737C149.085 24.2143 148.521 25.631 147.517 26.6756C146.512 27.7202 145.15 28.3071 143.73 28.3071H138.614V34.4979C138.614 34.8882 138.529 35.0124 138.171 35.0124H137.37C137.011 35.0124 136.875 34.8882 136.875 34.4979V17.6814C136.875 17.2912 137.011 17.167 137.37 17.167H143.73ZM143.577 26.5509C144.065 26.5509 144.548 26.4509 145 26.2565C145.451 26.0622 145.86 25.7773 146.206 25.4182C146.551 25.0592 146.825 24.6329 147.011 24.1637C147.198 23.6945 147.294 23.1916 147.294 22.6838C147.294 22.176 147.198 21.6731 147.011 21.2039C146.825 20.7348 146.551 20.3085 146.206 19.9494C145.86 19.5903 145.451 19.3054 145 19.1111C144.548 18.9167 144.065 18.8167 143.577 18.8167H138.461V26.5509H143.577Z" fill="#202D3B" fill-opacity="0.4"/>
<path id="Vector_7" d="M162.189 17.2039C163.503 17.0596 164.828 17.3409 165.968 18.0062C167.108 18.6714 168.003 19.6851 168.518 20.8966C168.654 21.1676 168.518 21.3878 168.246 21.5233L167.497 21.8621C167.191 21.9806 167.072 21.9637 166.885 21.6419C166.499 20.7427 165.837 19.989 164.993 19.4896C164.149 18.9902 163.167 18.7711 162.189 18.8639C159.314 18.8639 157.749 19.9988 157.749 22.0315C157.733 22.6527 157.942 23.2589 158.339 23.7384C158.736 24.2178 159.294 24.5381 159.91 24.6401C160.825 24.9372 161.774 25.1193 162.734 25.1821C163.896 25.2438 165.043 25.4779 166.136 25.8766C166.974 26.1406 167.696 26.6838 168.179 27.4148C168.662 28.1459 168.878 29.0203 168.79 29.8911C168.79 33.0586 166.477 34.9727 162.223 34.9727C160.828 35.1316 159.421 34.8098 158.235 34.0608C157.05 33.3118 156.158 32.1809 155.708 30.8566C155.678 30.7962 155.662 30.73 155.66 30.6626C155.659 30.5953 155.673 30.5285 155.7 30.467C155.728 30.4055 155.769 30.3508 155.82 30.3069C155.871 30.263 155.932 30.2309 155.997 30.2129L156.746 29.9419C156.805 29.9179 156.868 29.9064 156.932 29.9081C156.995 29.9098 157.058 29.9246 157.115 29.9517C157.173 29.9788 157.224 30.0175 157.266 30.0654C157.308 30.1133 157.339 30.1693 157.358 30.2299C157.739 31.1868 158.415 31.9982 159.29 32.5464C160.165 33.0946 161.192 33.3511 162.223 33.2789C165.439 33.2789 167.021 32.1609 167.021 29.8911C167.051 29.2944 166.867 28.7065 166.503 28.232C166.138 27.7574 165.617 27.427 165.031 27.2994C164.15 27.038 163.243 26.8788 162.326 26.8252L160.488 26.588C159.913 26.4665 159.345 26.3138 158.787 26.1307C158.236 25.9648 157.721 25.6945 157.273 25.3345C156.822 24.9276 156.466 24.4269 156.231 23.8678C155.995 23.3087 155.887 22.7049 155.912 22.0992C156.031 19.1349 158.26 17.2039 162.189 17.2039Z" fill="#202D3B" fill-opacity="0.4"/>
<path id="Vector_8" d="M178.102 28.7048C178.175 29.9336 178.711 31.0879 179.601 31.9319C180.491 32.7758 181.668 33.2458 182.89 33.2458C184.113 33.2458 185.289 32.7758 186.179 31.9319C187.069 31.0879 187.606 29.9336 187.679 28.7048V17.6709C187.679 17.2886 187.8 17.167 188.179 17.167H188.973C189.353 17.167 189.473 17.2886 189.473 17.6709V28.6874C189.473 32.6318 187.161 35.0124 182.899 35.0124C178.637 35.0124 176.324 32.6318 176.324 28.6874V17.6709C176.324 17.2886 176.445 17.167 176.807 17.167H177.618C177.981 17.167 178.102 17.2886 178.102 17.6709V28.7048Z" fill="#202D3B" fill-opacity="0.4"/>
<path id="Vector_9" d="M213.381 17.1701C213.766 17.1701 213.889 17.2942 213.889 17.6844V34.498C213.889 34.8882 213.766 35.0124 213.381 35.0124H212.646C212.278 35.0124 212.156 34.8882 212.156 34.498V24.2644C212.155 22.7754 212.255 21.2881 212.453 19.8127H212.348C211.801 21.1619 211.164 22.4715 210.44 23.7323L206.676 30.4542C206.63 30.5709 206.55 30.6706 206.447 30.7402C206.343 30.8099 206.222 30.8462 206.098 30.8444H205.608C205.482 30.845 205.358 30.8085 205.253 30.7392C205.147 30.6699 205.063 30.5709 205.012 30.4542L201.196 23.6614C200.518 22.4186 199.933 21.1262 199.445 19.795H199.34C199.519 21.2839 199.613 22.7822 199.62 24.2822V34.498C199.62 34.8882 199.498 35.0124 199.112 35.0124H198.43C198.044 35.0124 197.922 34.8882 197.922 34.498V17.6844C197.922 17.2942 198.044 17.1701 198.43 17.1701H199.06C199.204 17.1565 199.349 17.1884 199.474 17.2614C199.599 17.3345 199.699 17.445 199.76 17.578L205.888 28.6097L211.98 17.6844C212.173 17.3119 212.278 17.2587 212.663 17.2587L213.381 17.1701Z" fill="#202D3B" fill-opacity="0.4"/>
<path id="Vector_10" d="M16.0165 30.7579V43.1521C16.0165 43.6273 15.8232 44.0829 15.4791 44.4189C15.135 44.7548 14.6683 44.9436 14.1816 44.9436C13.695 44.9436 13.2282 44.7548 12.8841 44.4189C12.54 44.0829 12.3467 43.6273 12.3467 43.1521V30.775C12.8576 31.1392 13.4702 31.3426 14.1026 31.3579C14.792 31.3771 15.4674 31.1654 16.0165 30.7579ZM31.6441 27.175C31.1784 27.175 30.7317 27.3556 30.4024 27.6771C30.0731 27.9986 29.8881 28.4346 29.8881 28.8893V31.0493C29.8881 31.5244 30.0815 31.9801 30.4256 32.316C30.7697 32.652 31.2364 32.8407 31.7231 32.8407C32.2097 32.8407 32.6764 32.652 33.0205 32.316C33.3647 31.9801 33.558 31.5244 33.558 31.0493V28.975C33.5716 28.7292 33.5309 28.4834 33.4386 28.2543C33.3462 28.0252 33.2044 27.8183 33.0229 27.6475C32.8413 27.4767 32.6241 27.3461 32.3862 27.2646C32.1483 27.183 31.8951 27.1525 31.6441 27.175ZM8.36079 35.455C7.72896 35.4365 7.11732 35.2335 6.60489 34.8722V47.3007C6.60489 47.7781 6.79914 48.2359 7.1449 48.5735C7.49066 48.9111 7.95961 49.1007 8.44859 49.1007C8.93756 49.1007 9.40652 48.9111 9.75228 48.5735C10.098 48.2359 10.2923 47.7781 10.2923 47.3007V34.9579C9.7189 35.3197 9.04237 35.4938 8.36079 35.455ZM25.9198 23.455C25.6819 23.4434 25.4441 23.4791 25.2209 23.5601C24.9976 23.641 24.7935 23.7654 24.621 23.9258C24.4486 24.0861 24.3113 24.2791 24.2177 24.4929C24.124 24.7066 24.0758 24.9368 24.0761 25.1693V34.7179C24.0761 35.1953 24.2704 35.6531 24.6161 35.9907C24.9619 36.3282 25.4308 36.5179 25.9198 36.5179C26.4088 36.5179 26.8777 36.3282 27.2235 35.9907C27.5693 35.6531 27.7635 35.1953 27.7635 34.7179V25.2893C27.7775 25.0419 27.7364 24.7945 27.643 24.5641C27.5497 24.3337 27.4063 24.1258 27.2227 23.9547C27.0391 23.7836 26.8197 23.6534 26.5796 23.5731C26.3396 23.4927 26.0845 23.4641 25.832 23.4893L25.9198 23.455ZM20.0902 27.1236C19.4289 27.1192 18.785 26.9156 18.2465 26.5407V39.0036C18.2465 39.481 18.4408 39.9388 18.7865 40.2764C19.1323 40.6139 19.6012 40.8036 20.0902 40.8036C20.5792 40.8036 21.0481 40.6139 21.3939 40.2764C21.7397 39.9388 21.9339 39.481 21.9339 39.0036V26.5579C21.3769 26.963 20.6968 27.1742 20.0024 27.1579L20.0902 27.1236ZM4.37489 36.6721V1.85503C4.37027 1.43063 4.19433 1.02515 3.8853 0.726647C3.57626 0.428144 3.15908 0.260718 2.72435 0.260742H2.33805C1.90332 0.260718 1.48614 0.428144 1.1771 0.726647C0.868063 1.02515 0.692125 1.43063 0.6875 1.85503V36.6721C0.6875 37.0995 0.861397 37.5094 1.17093 37.8116C1.48047 38.1138 1.9003 38.2836 2.33805 38.2836H2.72435C3.1621 38.2836 3.58193 38.1138 3.89146 37.8116C4.201 37.5094 4.37489 37.0995 4.37489 36.6721ZM8.55394 34.135H8.16764C7.72989 34.135 7.31007 33.9652 7.00053 33.663C6.69099 33.3608 6.5171 32.951 6.5171 32.5236V6.0036C6.52172 5.5792 6.69766 5.17372 7.00669 4.87521C7.31573 4.57671 7.73291 4.40929 8.16764 4.40931H8.55394C8.98867 4.40929 9.40585 4.57671 9.71489 4.87521C10.0239 5.17372 10.1999 5.5792 10.2045 6.0036V32.5579C10.2045 32.9852 10.0306 33.3951 9.72105 33.6973C9.41152 33.9995 8.9917 34.1693 8.55394 34.1693V34.135ZM14.366 30.055H13.9621C13.529 30.055 13.1137 29.887 12.8074 29.5881C12.5012 29.2891 12.3291 28.8836 12.3291 28.4607V10.1179C12.3268 9.90708 12.3673 9.69792 12.4484 9.50251C12.5294 9.3071 12.6493 9.12932 12.8012 8.97945C12.953 8.82959 13.1338 8.71062 13.3331 8.62943C13.5324 8.54824 13.7462 8.50644 13.9621 8.50645H14.366C14.8007 8.51097 15.216 8.68274 15.5218 8.98445C15.8275 9.28616 15.999 9.69346 15.999 10.1179V28.4607C15.999 28.8836 15.8269 29.2891 15.5207 29.5881C15.2144 29.887 14.7991 30.055 14.366 30.055ZM20.178 25.855H19.8093C19.3745 25.855 18.9574 25.6876 18.6483 25.3891C18.3393 25.0906 18.1633 24.6851 18.1587 24.2607V14.3865C18.1443 14.1663 18.1763 13.9457 18.2528 13.7382C18.3293 13.5306 18.4485 13.3406 18.6033 13.1799C18.758 13.0192 18.9449 12.8912 19.1523 12.8039C19.3598 12.7165 19.5834 12.6717 19.8093 12.6722H20.1956C20.6333 12.6722 21.0531 12.8419 21.3627 13.1441C21.6722 13.4463 21.8461 13.8562 21.8461 14.2836V24.2264C21.8484 24.4395 21.8075 24.6509 21.7256 24.8484C21.6436 25.0459 21.5224 25.2255 21.3689 25.377C21.2154 25.5285 21.0327 25.6487 20.8313 25.7307C20.6299 25.8128 20.4138 25.855 20.1956 25.855H20.178ZM26.0076 22.1693H25.6213C25.1836 22.1693 24.7637 21.9995 24.4542 21.6973C24.1447 21.3951 23.9708 20.9853 23.9708 20.5579V18.0036C23.9754 17.5792 24.1513 17.1737 24.4604 16.8752C24.7694 16.5767 25.1866 16.4093 25.6213 16.4093H26.0076C26.4423 16.4093 26.8595 16.5767 27.1686 16.8752C27.4776 17.1737 27.6535 17.5792 27.6582 18.0036V20.5579C27.6582 20.9823 27.4867 21.3896 27.1809 21.6913C26.8752 21.993 26.4599 22.1648 26.0252 22.1693H26.0076Z" fill="#202D3B" fill-opacity="0.4"/>
</g>
</svg>
