<svg width="207" height="48" viewBox="0 0 207 48" fill="none" xmlns="http://www.w3.org/2000/svg">
<g id="Group 535">
<path id="Vector" d="M61.0625 13.8192H66.2385V34.6602H61.0625V13.8192ZM68.2917 26.7912C68.2917 21.6368 71.4663 18.5613 76.3663 18.5613C81.2663 18.5613 84.4409 21.6368 84.4409 26.7912C84.4409 31.9456 81.3353 35.0382 76.3663 35.0382C71.3973 35.0382 68.2917 32.0315 68.2917 26.7912ZM79.2476 26.7912C79.2476 23.9562 78.1262 22.2896 76.3663 22.2896C74.6065 22.2896 73.5022 24.0078 73.5022 26.7912C73.5022 29.5745 74.5892 31.2583 76.3663 31.2583C78.1434 31.2583 79.2476 29.6776 79.2476 26.8083V26.7912ZM86.3906 35.6739H91.3596C91.596 36.1971 91.9958 36.6302 92.4995 36.9089C93.0031 37.1875 93.5836 37.2967 94.1546 37.2202C96.1215 37.2202 97.1567 36.155 97.1567 34.6087V31.7222H97.0532C96.6408 32.6069 95.9716 33.3482 95.132 33.8504C94.2925 34.3527 93.321 34.5929 92.343 34.54C88.5645 34.54 86.0628 31.6707 86.0628 26.7396C86.0628 21.8086 88.4437 18.6987 92.412 18.6987C93.4207 18.6594 94.4173 18.9279 95.2684 19.4684C96.1195 20.0088 96.7844 20.7954 97.174 21.7227V18.8534H102.35V34.4884C102.35 38.2511 99.0201 40.5878 94.1029 40.5878C89.5307 40.5878 86.6839 38.5432 86.3906 35.6911V35.6739ZM97.174 26.774C97.174 24.2655 96.018 22.6848 94.1891 22.6848C92.3603 22.6848 91.2388 24.2483 91.2388 26.774C91.2388 29.2996 92.343 30.7257 94.1891 30.7257C96.0353 30.7257 97.174 29.334 97.174 26.7912V26.774ZM104.3 26.774C104.3 21.6196 107.474 18.5441 112.374 18.5441C117.274 18.5441 120.466 21.6196 120.466 26.774C120.466 31.9284 117.361 35.021 112.374 35.021C107.388 35.021 104.3 32.0315 104.3 26.7912V26.774ZM115.256 26.774C115.256 23.9391 114.134 22.2725 112.374 22.2725C110.614 22.2725 109.596 24.0078 109.596 26.8083C109.596 29.6089 110.683 31.2755 112.443 31.2755C114.203 31.2755 115.256 29.6776 115.256 26.8083V26.774ZM122.433 15.1078C122.419 14.5874 122.561 14.0747 122.841 13.6347C123.12 13.1947 123.524 12.8472 124.002 12.6363C124.48 12.4254 125.01 12.3605 125.525 12.45C126.04 12.5394 126.517 12.7791 126.895 13.1387C127.273 13.4982 127.536 13.9615 127.649 14.4697C127.762 14.9779 127.722 15.5082 127.532 15.9933C127.342 16.4784 127.012 16.8965 126.584 17.1947C126.155 17.4928 125.647 17.6575 125.125 17.6679C124.778 17.6916 124.43 17.6437 124.103 17.5272C123.776 17.4107 123.477 17.2281 123.224 16.9909C122.972 16.7537 122.771 16.4671 122.635 16.1489C122.498 15.8308 122.43 15.488 122.433 15.1422V15.1078ZM122.433 18.8877H127.609V34.6602H122.433V18.8877ZM146.398 26.774C146.398 31.9284 144.103 34.8664 140.17 34.8664C139.161 34.9309 138.157 34.6853 137.293 34.1629C136.429 33.6406 135.747 32.8665 135.339 31.9456H135.235V39.7115H130.059V18.8534H135.235V21.6711H135.339C135.728 20.7349 136.397 19.9408 137.255 19.3966C138.113 18.8525 139.119 18.5848 140.135 18.63C144.103 18.6987 146.467 21.6539 146.467 26.8083L146.398 26.774ZM141.222 26.774C141.222 24.2655 140.066 22.6676 138.254 22.6676C136.443 22.6676 135.287 24.2827 135.27 26.774C135.252 29.2653 136.443 30.8631 138.254 30.8631C140.066 30.8631 141.222 29.2996 141.222 26.8083V26.774ZM155.284 18.5269C159.58 18.5269 162.185 20.5543 162.306 23.8016H157.596C157.596 22.6848 156.664 21.9804 155.232 21.9804C153.8 21.9804 153.161 22.5302 153.161 23.3377C153.161 24.1452 153.731 24.403 154.887 24.6435L158.199 25.3136C161.357 25.9836 162.703 27.2551 162.703 29.6433C162.703 32.9077 159.718 35.0039 155.318 35.0039C150.918 35.0039 148.037 32.9077 147.813 29.6948H152.799C152.954 30.8631 153.886 31.5504 155.404 31.5504C156.923 31.5504 157.613 31.0521 157.613 30.2274C157.613 29.4027 157.13 29.2309 155.887 28.9732L152.903 28.3375C149.814 27.7018 148.192 26.0695 148.192 23.6642C148.227 20.5715 151.005 18.5613 155.284 18.5613V18.5269ZM179.973 34.6259H174.987V31.6879H174.884C174.609 32.6743 174.005 33.5376 173.17 34.1346C172.335 34.7316 171.32 35.0262 170.294 34.9695C169.508 35.014 168.721 34.8899 167.987 34.6056C167.253 34.3213 166.588 33.8834 166.039 33.3215C165.489 32.7595 165.067 32.0867 164.801 31.3484C164.535 30.6101 164.431 29.8236 164.497 29.0419V18.8534H169.673V27.8564C169.673 29.7292 170.639 30.7257 172.244 30.7257C172.62 30.7265 172.992 30.6471 173.335 30.493C173.678 30.3389 173.984 30.1135 174.232 29.832C174.481 29.5506 174.666 29.2195 174.775 28.861C174.884 28.5024 174.915 28.1248 174.866 27.7533V18.8534H180.042L179.973 34.6259ZM182.475 18.8534H187.479V21.8945H187.582C187.857 20.9211 188.448 20.0659 189.263 19.4628C190.077 18.8596 191.07 18.5426 192.085 18.5613C193.118 18.4789 194.144 18.7867 194.959 19.4234C195.774 20.0602 196.319 20.9791 196.485 21.9976H196.588C196.901 20.9683 197.549 20.072 198.43 19.4499C199.311 18.8277 200.375 18.5151 201.454 18.5613C202.158 18.5377 202.859 18.6619 203.511 18.9258C204.164 19.1897 204.753 19.5873 205.242 20.0929C205.73 20.5984 206.106 21.2006 206.345 21.8603C206.584 22.52 206.681 23.2224 206.63 23.9219V34.6602H201.454V25.2964C201.454 23.5782 200.677 22.7879 199.228 22.7879C198.905 22.7852 198.585 22.8515 198.29 22.9824C197.994 23.1133 197.731 23.3058 197.517 23.5468C197.302 23.7878 197.143 24.0718 197.048 24.3795C196.953 24.6872 196.926 25.0116 196.968 25.3307V34.6602H192.051V25.2277C192.051 23.647 191.274 22.7879 189.86 22.7879C189.533 22.788 189.21 22.8571 188.911 22.9907C188.613 23.1243 188.347 23.3192 188.13 23.5628C187.914 23.8063 187.751 24.0929 187.654 24.4036C187.556 24.7142 187.526 25.042 187.565 25.3651V34.6602H182.389L182.475 18.8534Z" fill="#202D3B" fill-opacity="0.4"/>
<path id="Vector_2" d="M45.9758 14.3843C45.0949 12.3694 43.929 10.4917 42.5137 8.80874C40.4217 6.24665 37.8109 4.15677 34.8533 2.67667C31.8956 1.19656 28.6581 0.359795 25.3538 0.221431C22.0496 0.0830663 18.7535 0.646241 15.6825 1.8739C12.6115 3.10155 9.83527 4.96585 7.53648 7.34408C5.23768 9.72232 3.46846 12.5606 2.34527 15.672C1.22207 18.7835 0.770366 22.0976 1.01988 25.3963C1.2694 28.695 2.21448 31.9034 3.79292 34.8104C5.37136 37.7173 7.54736 40.257 10.1777 42.2622C11.8655 43.5745 13.7305 44.6413 15.7171 45.4309C18.5024 46.5726 21.4834 47.1608 24.4935 47.1624C30.7069 47.1487 36.6615 44.6712 41.0518 40.2732C45.4421 35.8751 47.91 29.9152 47.9146 23.7C47.9192 20.4941 47.259 17.3221 45.9758 14.3843ZM24.4762 4.98203C27.1793 4.98174 29.8498 5.57272 32.3006 6.71357C31.7029 6.97186 31.0746 7.15227 30.431 7.25035C28.3132 7.557 26.3514 8.54049 24.8383 10.054C23.3252 11.5676 22.342 13.53 22.0354 15.6483C21.9009 16.8364 21.3607 17.9416 20.5061 18.7776C19.6514 19.6135 18.5347 20.129 17.3443 20.2369C15.2265 20.5436 13.2647 21.5271 11.7516 23.0406C10.2385 24.5541 9.25524 26.5165 8.94869 28.6349C8.84489 29.7646 8.36306 30.8261 7.58115 31.6478C6.23207 28.7964 5.62603 25.65 5.81942 22.5013C6.01281 19.3526 6.99935 16.3041 8.68724 13.6393C10.3751 10.9746 12.7095 8.7802 15.4731 7.26048C18.2368 5.74075 21.3398 4.94504 24.4935 4.9474L24.4762 4.98203ZM10.1604 35.8208C10.3681 35.6304 10.5759 35.4572 10.7836 35.2494C12.3236 33.7559 13.3122 31.7844 13.5879 29.6565C13.6997 28.4605 14.2336 27.3433 15.0939 26.5051C15.9218 25.6431 17.0361 25.1135 18.2271 25.016C20.3449 24.7093 22.3067 23.7259 23.8198 22.2123C25.3329 20.6988 26.3161 18.7364 26.6227 16.618C26.6976 15.367 27.2343 14.1884 28.1287 13.3108C28.977 12.4655 30.102 11.9551 31.2965 11.8736C33.2421 11.6058 35.0566 10.7407 36.4897 9.39747C38.1215 10.7517 39.504 12.3807 40.575 14.2112C40.5092 14.3001 40.4337 14.3814 40.3499 14.4536C39.5236 15.3231 38.4108 15.8644 37.2167 15.9773C35.0968 16.2786 33.132 17.2604 31.6179 18.7749C30.1038 20.2894 29.1223 22.2548 28.8211 24.3753C28.6991 25.5674 28.1689 26.6806 27.3203 27.5263C26.4716 28.372 25.3568 28.8983 24.1646 29.0159C22.0407 29.3202 20.0715 30.3017 18.5496 31.8146C17.0278 33.3276 16.0344 35.2912 15.7171 37.4138C15.6239 38.2601 15.3334 39.0727 14.8689 39.7861C13.0928 38.7313 11.5021 37.3917 10.1604 35.8208ZM24.4762 42.5046C22.7197 42.5065 20.9715 42.2617 19.2831 41.7773C19.8606 40.7003 20.2361 39.5266 20.3909 38.3143C20.5122 37.1249 21.04 36.0137 21.8851 35.1684C22.7303 34.323 23.8411 33.7951 25.0301 33.6737C27.1511 33.3705 29.1168 32.3885 30.6333 30.8747C32.1498 29.3609 33.1356 27.3966 33.443 25.2757C33.5644 24.0863 34.0921 22.9752 34.9373 22.1298C35.7824 21.2844 36.8932 20.7565 38.0823 20.6352C39.6783 20.4275 41.1996 19.8331 42.5137 18.9036C43.2435 21.6705 43.3299 24.5678 42.7664 27.3732C42.2029 30.1787 41.0045 32.8178 39.2631 35.088C37.5216 37.3582 35.2834 39.1992 32.7202 40.4698C30.157 41.7405 27.3369 42.4069 24.4762 42.418V42.5046Z" fill="#202D3B" fill-opacity="0.4"/>
</g>
</svg>
