<svg width="73" height="66" viewBox="0 0 73 66" fill="none" xmlns="http://www.w3.org/2000/svg">
<path d="M0.9 65.5V44.2C0.9 36 2.2 28.4 4.8 21.4C7.6 14.4 12.3 7.49999 18.9 0.699992L30.6 9.39999C25.4 15.2 21.8 20.5 19.8 25.3C18 29.9 17.1 34.8 17.1 40L9.9 34.9H31.5V65.5H0.9ZM42.1617 65.5V44.2C42.1617 36 43.4617 28.4 46.0617 21.4C48.8617 14.4 53.5617 7.49999 60.1617 0.699992L71.8617 9.39999C66.6617 15.2 63.0617 20.5 61.0617 25.3C59.2617 29.9 58.3617 34.8 58.3617 40L51.1617 34.9H72.7617V65.5H42.1617Z" fill="#0486FF"/>
</svg>
