<svg width="41" height="32" viewBox="0 0 41 32" fill="none" xmlns="http://www.w3.org/2000/svg">
<g id="&#240;&#159;&#166;&#134; icon &#34;India&#34;" filter="url(#filter0_d_252_2407)">
<g id="Mask group">
<mask id="mask0_252_2407" style="mask-type:luminance" maskUnits="userSpaceOnUse" x="2" y="2" width="35" height="26">
<g id="Group">
<path id="Vector" d="M2 2H36.6666V28H2V2Z" fill="white"/>
</g>
</mask>
<g mask="url(#mask0_252_2407)">
<g id="Group_2">
<path id="Vector_2" fill-rule="evenodd" clip-rule="evenodd" d="M2 2V28H36.6666V2H2Z" fill="#F7FCFF"/>
<g id="Mask group_2">
<mask id="mask1_252_2407" style="mask-type:luminance" maskUnits="userSpaceOnUse" x="2" y="2" width="35" height="26">
<g id="Group_3">
<path id="Vector_3" fill-rule="evenodd" clip-rule="evenodd" d="M2 2V28H36.6666V2H2Z" fill="white"/>
</g>
</mask>
<g mask="url(#mask1_252_2407)">
<g id="Group_4">
<path id="Vector_4" fill-rule="evenodd" clip-rule="evenodd" d="M2 2V10.6667H36.6666V2H2Z" fill="#FF8C1A"/>
<path id="Vector_5" fill-rule="evenodd" clip-rule="evenodd" d="M2 19.3333V27.9999H36.6666V19.3333H2Z" fill="#5EAA22"/>
<g id="Group_5">
<path id="Vector_6" fill-rule="evenodd" clip-rule="evenodd" d="M15 14.9998C15 17.393 16.9401 19.3332 19.3333 19.3332C21.7265 19.3332 23.6667 17.393 23.6667 14.9998C23.6667 12.6066 21.7265 10.6665 19.3333 10.6665C16.9401 10.6665 15 12.6066 15 14.9998ZM22.5833 14.9998C22.5833 16.7948 21.1283 18.2498 19.3333 18.2498C17.5384 18.2498 16.0833 16.7948 16.0833 14.9998C16.0833 13.2049 17.5384 11.7498 19.3333 11.7498C21.1283 11.7498 22.5833 13.2049 22.5833 14.9998Z" fill="#3D58DB"/>
<path id="Vector_7" fill-rule="evenodd" clip-rule="evenodd" d="M19.3296 15.9322L18.7113 19.3129L19.0704 15.8949L17.5246 18.9644L18.832 15.7861L16.4841 18.2957L18.634 15.6146L15.6741 17.361L18.4924 15.3941L15.1604 16.236L18.4185 15.1428L14.9844 15.0117L18.4185 14.8807L15.1604 13.7875L18.4924 14.6294L15.6741 12.6625L18.634 14.4089L16.4841 11.7278L18.832 14.2375L17.5246 11.0591L19.0704 14.1286L18.7113 10.7107L19.3296 14.0913L19.9481 10.7107L19.589 14.1286L21.1348 11.0591L19.8273 14.2375L22.1752 11.7278L20.0253 14.4089L22.9852 12.6625L20.1669 14.6294L23.4989 13.7875L20.2408 14.8807L23.675 15.0117L20.2408 15.1428L23.4989 16.236L20.1669 15.3941L22.9852 17.361L20.0253 15.6146L22.1752 18.2957L19.8273 15.7861L21.1348 18.9644L19.589 15.8949L19.9481 19.3129L19.3296 15.9322Z" fill="#3D58DB"/>
</g>
</g>
</g>
</g>
</g>
</g>
</g>
</g>
<defs>
<filter id="filter0_d_252_2407" x="0" y="0" width="40.668" height="32" filterUnits="userSpaceOnUse" color-interpolation-filters="sRGB">
<feFlood flood-opacity="0" result="BackgroundImageFix"/>
<feColorMatrix in="SourceAlpha" type="matrix" values="0 0 0 0 0 0 0 0 0 0 0 0 0 0 0 0 0 0 127 0" result="hardAlpha"/>
<feOffset dx="1" dy="1"/>
<feGaussianBlur stdDeviation="1.5"/>
<feComposite in2="hardAlpha" operator="out"/>
<feColorMatrix type="matrix" values="0 0 0 0 0 0 0 0 0 0 0 0 0 0 0 0 0 0 0.24 0"/>
<feBlend mode="normal" in2="BackgroundImageFix" result="effect1_dropShadow_252_2407"/>
<feBlend mode="normal" in="SourceGraphic" in2="effect1_dropShadow_252_2407" result="shape"/>
</filter>
</defs>
</svg>
