<svg width="42" height="42" viewBox="0 0 42 42" fill="none" xmlns="http://www.w3.org/2000/svg">
<g id="iconoir:two-points-circle">
<g id="Group">
<path id="Vector" d="M21 38.5C30.6652 38.5 38.5 30.6652 38.5 21C38.5 11.3348 30.6652 3.5 21 3.5C11.3348 3.5 3.5 11.3348 3.5 21C3.5 30.6652 11.3348 38.5 21 38.5Z" stroke="#0486FF" stroke-width="2" stroke-linecap="round" stroke-linejoin="round"/>
<path id="Vector_2" d="M8.75 10.5C9.21413 10.5 9.65925 10.3156 9.98744 9.98744C10.3156 9.65925 10.5 9.21413 10.5 8.75C10.5 8.28587 10.3156 7.84075 9.98744 7.51256C9.65925 7.18437 9.21413 7 8.75 7C8.28587 7 7.84075 7.18437 7.51256 7.51256C7.18437 7.84075 7 8.28587 7 8.75C7 9.21413 7.18437 9.65925 7.51256 9.98744C7.84075 10.3156 8.28587 10.5 8.75 10.5ZM33.25 35C33.7141 35 34.1593 34.8156 34.4874 34.4874C34.8156 34.1593 35 33.7141 35 33.25C35 32.7859 34.8156 32.3407 34.4874 32.0126C34.1593 31.6844 33.7141 31.5 33.25 31.5C32.7859 31.5 32.3407 31.6844 32.0126 32.0126C31.6844 32.3407 31.5 32.7859 31.5 33.25C31.5 33.7141 31.6844 34.1593 32.0126 34.4874C32.3407 34.8156 32.7859 35 33.25 35Z" fill="#0486FF" stroke="#0486FF" stroke-width="2" stroke-linecap="round" stroke-linejoin="round"/>
<path id="Vector_3" d="M33.25 33.25L30.625 30.625M27.125 27.125L25.375 25.375M21.875 21.875L20.125 20.125M16.625 16.625L14.875 14.875M11.375 11.375L8.75 8.75" stroke="#0486FF" stroke-width="2" stroke-linecap="round" stroke-linejoin="round"/>
</g>
</g>
</svg>
