<svg width="39" height="39" viewBox="0 0 39 39" fill="none" xmlns="http://www.w3.org/2000/svg">
<g id="fluent-mdl2:globe-2">
<path id="Vector" d="M36.125 29.9355C36.125 30.2656 36.0044 30.5513 35.7632 30.7925C35.522 31.0337 35.2364 31.1543 34.9063 31.1543C34.7158 31.1543 34.5191 31.0908 34.3159 30.9639C34.1128 30.8369 33.916 30.6909 33.7256 30.5259C33.5352 30.3608 33.3574 30.1768 33.1924 29.9736C33.0274 29.7705 32.8814 29.6118 32.7544 29.4976C31.4087 30.6909 29.9361 31.6494 28.3364 32.373C26.7368 33.0967 25.042 33.5854 23.252 33.8394V36.5625H26.813V39H17.063V36.5625H20.8145V34.0107C19.1133 34.0107 17.482 33.7949 15.9204 33.3633C14.3589 32.9316 12.899 32.3223 11.5406 31.5352C10.1822 30.748 8.93801 29.8022 7.80813 28.6978C6.67825 27.5933 5.7261 26.3618 4.95169 25.0034C4.17727 23.645 3.56155 22.1851 3.10452 20.6235C2.64749 19.062 2.42532 17.4307 2.43801 15.7295C2.43801 13.4824 2.82522 11.3433 3.59964 9.31201C4.37405 7.28076 5.49124 5.4082 6.9512 3.69434C6.83694 3.59277 6.72268 3.48486 6.60842 3.37061C6.49417 3.25635 6.37991 3.13574 6.26565 3.00879C6.15139 2.88184 6.06253 2.74854 5.99905 2.60889C5.93557 2.46924 5.89749 2.31055 5.88479 2.13281C5.88479 1.80273 6.0054 1.51709 6.24661 1.27588C6.48782 1.03467 6.77346 0.914062 7.10354 0.914062C7.44631 0.914062 7.73831 1.03467 7.97952 1.27588L12.2071 5.48438C13.4131 4.49414 14.7398 3.73877 16.187 3.21826C17.6343 2.69775 19.145 2.4375 20.7193 2.4375C21.9507 2.4375 23.1377 2.59619 24.2803 2.91357C25.4229 3.23096 26.4893 3.68164 27.4795 4.26562C28.4697 4.84961 29.3775 5.54785 30.2027 6.36035C31.0279 7.17285 31.7261 8.07422 32.2974 9.06445C32.8687 10.0547 33.3194 11.1274 33.6494 12.2827C33.9795 13.438 34.1382 14.625 34.1255 15.8438C34.1255 17.4053 33.8653 18.9097 33.3447 20.3569C32.8242 21.8042 32.0689 23.1372 31.0786 24.356L35.7632 29.0596C36.0044 29.3008 36.125 29.5928 36.125 29.9355ZM9.75051 15.8438C9.75051 16.8721 9.89651 17.894 10.1885 18.9097L12.645 16.4341C12.1753 15.7358 11.7564 15.0186 11.3882 14.2822C11.02 13.5459 10.709 12.7715 10.4551 11.959C9.98538 13.2285 9.75051 14.5234 9.75051 15.8438ZM14.397 7.63623C13.7495 7.63623 13.2735 7.78857 12.9688 8.09326C12.6641 8.39795 12.5117 8.88037 12.5117 9.54053C12.5117 9.95947 12.5689 10.3975 12.6831 10.8545C12.7974 11.3115 12.9434 11.7622 13.1211 12.2065C13.2989 12.6509 13.502 13.0889 13.7305 13.5205C13.959 13.9521 14.1875 14.3394 14.416 14.6821L19.5576 9.54053C19.2022 9.31201 18.815 9.0835 18.396 8.85498C17.9771 8.62646 17.5391 8.42334 17.0821 8.24561C16.625 8.06787 16.1743 7.92188 15.73 7.80762C15.2857 7.69336 14.8413 7.63623 14.397 7.63623ZM27.0225 17.0054L21.8809 22.147C22.2364 22.3755 22.6236 22.5977 23.0425 22.8135C23.4614 23.0293 23.8931 23.2324 24.3374 23.4229C24.7818 23.6133 25.2388 23.7656 25.7085 23.8799C26.1782 23.9941 26.6162 24.0513 27.0225 24.0513C27.6826 24.0513 28.1651 23.8989 28.4697 23.5942C28.7744 23.2896 28.9268 22.8071 28.9268 22.147C28.9268 21.728 28.8697 21.29 28.7554 20.833C28.6411 20.376 28.4951 19.9253 28.3174 19.481C28.1397 19.0366 27.9365 18.5986 27.708 18.167C27.4795 17.7354 27.251 17.3481 27.0225 17.0054ZM19.8623 20.7188L25.5943 14.9868C24.3882 13.5142 23.0489 12.1748 21.5762 10.9688L15.8443 16.7007C17.0503 18.1733 18.3897 19.5127 19.8623 20.7188ZM14.1114 18.4146L11.2168 21.3281C11.6992 22.166 12.2769 22.9214 12.9497 23.5942C13.6226 24.2671 14.3843 24.8511 15.2349 25.3462L18.1485 22.4517C16.6631 21.2456 15.3174 19.8999 14.1114 18.4146ZM20.1289 23.918L17.6533 26.3745C18.669 26.6665 19.6909 26.8125 20.7193 26.8125C22.0396 26.8125 23.3345 26.5776 24.604 26.1079C23.8042 25.854 23.0362 25.543 22.2998 25.1748C21.5635 24.8066 20.8399 24.3877 20.1289 23.918ZM30.9834 19.7285C31.4531 18.459 31.688 17.1641 31.688 15.8438C31.688 14.8154 31.542 13.7935 31.25 12.7778L28.7935 15.2534C29.2632 15.9517 29.6822 16.6689 30.0503 17.4053C30.4185 18.1416 30.7295 18.916 30.9834 19.7285ZM30.2217 10.3594C29.7393 9.52148 29.1616 8.76611 28.4888 8.09326C27.8159 7.42041 27.0542 6.83643 26.2036 6.34131L23.2901 9.23584C24.7754 10.4419 26.1211 11.7876 27.3272 13.2729L30.2217 10.3594ZM23.7852 5.31299C22.7696 5.021 21.7476 4.875 20.7193 4.875C19.399 4.875 18.104 5.10986 16.8345 5.57959C17.6343 5.8335 18.4024 6.14453 19.1387 6.5127C19.875 6.88086 20.5987 7.2998 21.3096 7.76953L23.7852 5.31299ZM20.7193 31.5732C22.6109 31.5732 24.439 31.2495 26.2036 30.6021C27.9683 29.9546 29.5742 29.0088 31.0215 27.7646L29.3648 26.1079C28.1333 27.1235 26.7876 27.8979 25.3277 28.4312C23.8677 28.9644 22.3316 29.2373 20.7193 29.25C19.4878 29.25 18.3008 29.0913 17.1582 28.7739C16.0157 28.4565 14.9492 28.0059 13.959 27.4219C12.9688 26.8379 12.0611 26.1396 11.2359 25.3271C10.4107 24.5146 9.71243 23.6133 9.14114 22.623C8.56985 21.6328 8.11917 20.5601 7.78909 19.4048C7.45901 18.2495 7.30032 17.0625 7.31301 15.8438C7.31301 14.2314 7.57962 12.6953 8.11282 11.2354C8.64602 9.77539 9.42678 8.42969 10.4551 7.19824L8.68411 5.42725C7.45266 6.87451 6.51321 8.48047 5.86575 10.2451C5.21829 12.0098 4.88821 13.8442 4.87551 15.7485C4.87551 17.2085 5.0596 18.6113 5.42776 19.957C5.79592 21.3027 6.32913 22.5596 7.02737 23.7275C7.72561 24.8955 8.55081 25.9619 9.50296 26.9268C10.4551 27.8916 11.5215 28.7168 12.7022 29.4023C13.8828 30.0879 15.146 30.6211 16.4917 31.002C17.8374 31.3828 19.2466 31.5732 20.7193 31.5732Z" fill="#0486FF"/>
</g>
</svg>
