<svg xmlns="http://www.w3.org/2000/svg" xmlns:xlink="http://www.w3.org/1999/xlink" width="500" zoomAndPan="magnify" viewBox="0 0 375 374.999991" height="500" preserveAspectRatio="xMidYMid meet" version="1.0"><defs><g/></defs><g fill="#0486ff" fill-opacity="1"><g transform="translate(65.25, 208.062291)"><g><path d="M 14.40625 0.328125 C 11.882812 0.328125 9.679688 -0.210938 7.796875 -1.296875 C 5.910156 -2.378906 4.460938 -3.910156 3.453125 -5.890625 C 2.441406 -7.867188 1.9375 -10.191406 1.9375 -12.859375 C 1.9375 -15.492188 2.441406 -17.800781 3.453125 -19.78125 C 4.460938 -21.757812 5.910156 -23.28125 7.796875 -24.34375 C 9.679688 -25.414062 11.882812 -25.953125 14.40625 -25.953125 C 16.125 -25.953125 17.742188 -25.679688 19.265625 -25.140625 C 20.796875 -24.609375 22.066406 -23.859375 23.078125 -22.890625 L 21.5625 -19.515625 C 20.414062 -20.453125 19.269531 -21.128906 18.125 -21.546875 C 16.988281 -21.960938 15.769531 -22.171875 14.46875 -22.171875 C 12 -22.171875 10.085938 -21.367188 8.734375 -19.765625 C 7.378906 -18.160156 6.703125 -15.859375 6.703125 -12.859375 C 6.703125 -9.828125 7.375 -7.5 8.71875 -5.875 C 10.0625 -4.257812 11.976562 -3.453125 14.46875 -3.453125 C 15.769531 -3.453125 16.988281 -3.660156 18.125 -4.078125 C 19.269531 -4.503906 20.414062 -5.1875 21.5625 -6.125 L 23.078125 -2.734375 C 22.066406 -1.773438 20.796875 -1.023438 19.265625 -0.484375 C 17.742188 0.0546875 16.125 0.328125 14.40625 0.328125 Z M 14.40625 0.328125 "/></g></g></g><g fill="#0486ff" fill-opacity="1"><g transform="translate(89.901968, 208.062291)"><g><path d="M 14.140625 0.328125 C 11.671875 0.328125 9.519531 -0.203125 7.6875 -1.265625 C 5.851562 -2.335938 4.4375 -3.863281 3.4375 -5.84375 C 2.4375 -7.820312 1.9375 -10.160156 1.9375 -12.859375 C 1.9375 -15.515625 2.425781 -17.832031 3.40625 -19.8125 C 4.394531 -21.789062 5.804688 -23.304688 7.640625 -24.359375 C 9.484375 -25.421875 11.648438 -25.953125 14.140625 -25.953125 C 16.640625 -25.953125 18.804688 -25.421875 20.640625 -24.359375 C 22.484375 -23.304688 23.890625 -21.789062 24.859375 -19.8125 C 25.828125 -17.832031 26.3125 -15.515625 26.3125 -12.859375 C 26.3125 -10.160156 25.816406 -7.820312 24.828125 -5.84375 C 23.847656 -3.863281 22.445312 -2.335938 20.625 -1.265625 C 18.800781 -0.203125 16.640625 0.328125 14.140625 0.328125 Z M 14.140625 -3.390625 C 16.523438 -3.390625 18.375 -4.203125 19.6875 -5.828125 C 21.007812 -7.460938 21.671875 -9.804688 21.671875 -12.859375 C 21.671875 -15.878906 21.007812 -18.195312 19.6875 -19.8125 C 18.375 -21.4375 16.523438 -22.25 14.140625 -22.25 C 11.765625 -22.25 9.914062 -21.441406 8.59375 -19.828125 C 7.28125 -18.222656 6.625 -15.898438 6.625 -12.859375 C 6.625 -9.804688 7.28125 -7.460938 8.59375 -5.828125 C 9.914062 -4.203125 11.765625 -3.390625 14.140625 -3.390625 Z M 14.140625 -3.390625 "/></g></g></g><g fill="#0486ff" fill-opacity="1"><g transform="translate(118.188752, 208.062291)"><g><path d="M 2.765625 -25.625 L 12.203125 -25.625 C 16.398438 -25.625 19.65625 -24.507812 21.96875 -22.28125 C 24.289062 -20.050781 25.453125 -16.910156 25.453125 -12.859375 C 25.453125 -8.773438 24.289062 -5.609375 21.96875 -3.359375 C 19.65625 -1.117188 16.398438 0 12.203125 0 L 2.765625 0 Z M 11.921875 -3.78125 C 17.816406 -3.78125 20.765625 -6.804688 20.765625 -12.859375 C 20.765625 -18.859375 17.816406 -21.859375 11.921875 -21.859375 L 7.421875 -21.859375 L 7.421875 -3.78125 Z M 11.921875 -3.78125 "/></g></g></g><g fill="#0486ff" fill-opacity="1"><g transform="translate(145.611815, 208.062291)"><g><path d="M 2.765625 0 L 2.765625 -25.625 L 19.90625 -25.625 L 19.90625 -21.953125 L 7.3125 -21.953125 L 7.3125 -14.875 L 19.15625 -14.875 L 19.15625 -11.203125 L 7.3125 -11.203125 L 7.3125 -3.671875 L 19.90625 -3.671875 L 19.90625 0 Z M 2.765625 0 "/></g></g></g><g fill="#0486ff" fill-opacity="1"><g transform="translate(167.024832, 208.062291)"><g><path d="M 23.875 0 L 18.96875 0 L 15.703125 -8.53125 C 15.410156 -9.320312 14.960938 -9.875 14.359375 -10.1875 C 13.765625 -10.5 12.988281 -10.65625 12.03125 -10.65625 L 7.375 -10.65625 L 7.375 0 L 2.765625 0 L 2.765625 -25.625 L 13.75 -25.625 C 16.65625 -25.625 18.863281 -24.988281 20.375 -23.71875 C 21.882812 -22.445312 22.640625 -20.625 22.640625 -18.25 C 22.640625 -16.550781 22.1875 -15.101562 21.28125 -13.90625 C 20.382812 -12.71875 19.109375 -11.875 17.453125 -11.375 C 18.972656 -11.0625 20.066406 -10.003906 20.734375 -8.203125 Z M 13.109375 -14.25 C 14.859375 -14.25 16.148438 -14.570312 16.984375 -15.21875 C 17.828125 -15.875 18.25 -16.863281 18.25 -18.1875 C 18.25 -19.476562 17.832031 -20.441406 17 -21.078125 C 16.175781 -21.710938 14.878906 -22.03125 13.109375 -22.03125 L 7.3125 -22.03125 L 7.3125 -14.25 Z M 13.109375 -14.25 "/></g></g></g><g fill="#0486ff" fill-opacity="1"><g transform="translate(192.288601, 208.062291)"><g><path d="M 11.453125 0.328125 C 9.484375 0.328125 7.640625 0.0625 5.921875 -0.46875 C 4.203125 -1 2.742188 -1.753906 1.546875 -2.734375 L 3.125 -6.125 C 4.375 -5.1875 5.675781 -4.492188 7.03125 -4.046875 C 8.394531 -3.609375 9.878906 -3.390625 11.484375 -3.390625 C 13.253906 -3.390625 14.625 -3.695312 15.59375 -4.3125 C 16.570312 -4.9375 17.0625 -5.816406 17.0625 -6.953125 C 17.0625 -7.910156 16.609375 -8.644531 15.703125 -9.15625 C 14.804688 -9.675781 13.328125 -10.164062 11.265625 -10.625 C 8.046875 -11.3125 5.703125 -12.207031 4.234375 -13.3125 C 2.773438 -14.414062 2.046875 -16.023438 2.046875 -18.140625 C 2.046875 -19.648438 2.453125 -20.992188 3.265625 -22.171875 C 4.085938 -23.347656 5.25 -24.269531 6.75 -24.9375 C 8.25 -25.613281 9.984375 -25.953125 11.953125 -25.953125 C 13.753906 -25.953125 15.460938 -25.679688 17.078125 -25.140625 C 18.703125 -24.609375 20.03125 -23.859375 21.0625 -22.890625 L 19.515625 -19.515625 C 17.234375 -21.335938 14.710938 -22.25 11.953125 -22.25 C 10.296875 -22.25 8.988281 -21.90625 8.03125 -21.21875 C 7.070312 -20.539062 6.59375 -19.613281 6.59375 -18.4375 C 6.59375 -17.425781 7.015625 -16.65625 7.859375 -16.125 C 8.710938 -15.601562 10.171875 -15.113281 12.234375 -14.65625 C 14.367188 -14.144531 16.109375 -13.59375 17.453125 -13 C 18.796875 -12.414062 19.828125 -11.660156 20.546875 -10.734375 C 21.273438 -9.816406 21.640625 -8.660156 21.640625 -7.265625 C 21.640625 -5.734375 21.226562 -4.394531 20.40625 -3.25 C 19.59375 -2.113281 18.414062 -1.234375 16.875 -0.609375 C 15.34375 0.015625 13.535156 0.328125 11.453125 0.328125 Z M 11.453125 0.328125 "/></g></g></g><g fill="#0486ff" fill-opacity="1"><g transform="translate(215.47265, 208.062291)"><g/></g></g><g fill="#ffffff" fill-opacity="1"><g transform="translate(218.990644, 208.062291)"><g><path d="M 35.03125 -25.625 L 39.484375 -25.625 L 30.421875 0 L 26.640625 0 L 20.203125 -18.4375 L 13.6875 0 L 9.90625 0 L 0.859375 -25.625 L 5.578125 -25.625 L 11.984375 -6.515625 L 18.640625 -25.625 L 21.953125 -25.625 L 28.46875 -6.375 Z M 35.03125 -25.625 "/></g></g></g><g fill="#ffffff" fill-opacity="1"><g transform="translate(259.297511, 208.062291)"><g><path d="M 2.765625 0 L 2.765625 -25.625 L 7.421875 -25.625 L 7.421875 0 Z M 2.765625 0 "/></g></g></g><g fill="#ffffff" fill-opacity="1"><g transform="translate(269.482192, 208.062291)"><g><path d="M 23.875 0 L 18.96875 0 L 15.703125 -8.53125 C 15.410156 -9.320312 14.960938 -9.875 14.359375 -10.1875 C 13.765625 -10.5 12.988281 -10.65625 12.03125 -10.65625 L 7.375 -10.65625 L 7.375 0 L 2.765625 0 L 2.765625 -25.625 L 13.75 -25.625 C 16.65625 -25.625 18.863281 -24.988281 20.375 -23.71875 C 21.882812 -22.445312 22.640625 -20.625 22.640625 -18.25 C 22.640625 -16.550781 22.1875 -15.101562 21.28125 -13.90625 C 20.382812 -12.71875 19.109375 -11.875 17.453125 -11.375 C 18.972656 -11.0625 20.066406 -10.003906 20.734375 -8.203125 Z M 13.109375 -14.25 C 14.859375 -14.25 16.148438 -14.570312 16.984375 -15.21875 C 17.828125 -15.875 18.25 -16.863281 18.25 -18.1875 C 18.25 -19.476562 17.832031 -20.441406 17 -21.078125 C 16.175781 -21.710938 14.878906 -22.03125 13.109375 -22.03125 L 7.3125 -22.03125 L 7.3125 -14.25 Z M 13.109375 -14.25 "/></g></g></g><g fill="#ffffff" fill-opacity="1"><g transform="translate(294.745961, 208.062291)"><g><path d="M 2.765625 0 L 2.765625 -25.625 L 19.90625 -25.625 L 19.90625 -21.953125 L 7.3125 -21.953125 L 7.3125 -14.875 L 19.15625 -14.875 L 19.15625 -11.203125 L 7.3125 -11.203125 L 7.3125 -3.671875 L 19.90625 -3.671875 L 19.90625 0 Z M 2.765625 0 "/></g></g></g></svg>